<svg width="24" height="24" viewBox="0 0 24 24" fill="none" xmlns="http://www.w3.org/2000/svg">
<g clip-path="url(#clip0_4331_11913)">
<path d="M9.37267 7.02028C9.03727 7.97426 9.19876 8.55136 10 9.2639C9.85093 9.48179 9.70807 9.70556 9.5528 9.92345C9.52174 9.96467 9.44099 10 9.37888 10C6.60248 10 3.81988 10 1.04348 10C1.03727 10 1.03106 9.99411 1.00621 9.97644C1.00621 9.92345 1 9.85867 1 9.79389C1 9.08135 1 8.36881 1 7.65038C1 7.24995 1.23602 7.00851 1.65217 7.00262C4.19876 6.99673 6.74534 7.00262 9.29193 7.00262C9.31677 7.00851 9.3354 7.01439 9.37267 7.02028ZM5.79503 8.83991C6.03727 8.83991 6.21739 8.66325 6.2236 8.43359C6.2236 8.19804 6.03727 8.01549 5.78261 8.01549C5.54037 8.02137 5.36025 8.19215 5.35404 8.42181C5.35404 8.66325 5.54658 8.83991 5.79503 8.83991ZM7.64596 8.83991C7.90062 8.85169 8.09938 8.68092 8.10559 8.44537C8.1118 8.22159 7.93168 8.03315 7.69565 8.02137C7.44721 8.0096 7.24224 8.18037 7.23602 8.41592C7.22981 8.64558 7.40373 8.82813 7.64596 8.83991ZM3.90683 8.01549C3.67081 8.02137 3.47826 8.20393 3.47826 8.4277C3.47826 8.65736 3.67702 8.83991 3.92547 8.83991C4.16149 8.83402 4.35404 8.65736 4.35404 8.43359C4.35404 8.19804 4.14907 8.01549 3.90683 8.01549Z" fill="url(#paint0_linear_4331_11913)"/>
<path d="M13.6066 7.92748C13.4063 7.20223 13.2003 6.43794 13 5.71269C13.9728 5.13808 15.5329 4.56904 16.5 4C17 5.5 17.1395 6.67782 17.5 8C16.3841 7.97768 14.7682 7.94979 13.6066 7.92748Z" fill="url(#paint1_linear_4331_11913)"/>
<path d="M20 8.15861C20 8.61644 19.7154 8.93817 19.3133 8.99385C18.9422 9.04334 18.5772 8.78968 18.4659 8.39371C18.2803 7.72552 18.1071 7.05733 17.9277 6.38295C17.6307 5.27549 17.3276 4.16802 17.0369 3.06055C16.876 2.46661 17.2596 1.95927 17.8349 2.00258C18.1813 2.02733 18.4411 2.26244 18.5525 2.6584C18.8185 3.6545 19.0845 4.6506 19.3505 5.65289C19.5546 6.42007 19.7587 7.18726 19.9629 7.95444C19.9814 8.03487 19.9938 8.12149 20 8.15861Z" fill="url(#paint2_linear_4331_11913)"/>
<path d="M12.3311 6C12.5521 6.85378 12.7791 7.695 13 8.54878C12.9755 8.56761 12.9509 8.59272 12.9264 8.599C12.4661 8.72455 12.0121 8.85639 11.5518 8.96939C10.9075 9.12005 10.2448 8.69944 10.0546 8.04028C9.85823 7.36855 10.208 6.64661 10.84 6.41433C10.9259 6.38294 11.0119 6.35783 11.1039 6.33272C11.5089 6.21972 11.9139 6.113 12.3311 6Z" fill="url(#paint3_linear_4331_11913)"/>
<path d="M11.587 9.3501C11.6495 9.33135 11.7182 9.30635 11.7807 9.2876C12.087 9.20635 12.3932 9.1251 12.7182 9.0376C12.8682 9.5876 13.0182 10.1188 13.1432 10.6626C13.162 10.7376 13.062 10.8626 12.987 10.9251C12.9307 10.9751 12.8245 10.9751 12.7432 10.9876C12.3495 11.0626 12.287 11.0251 12.1245 10.6563C11.9432 10.2376 11.762 9.81885 11.5807 9.39385C11.5745 9.39385 11.5807 9.3751 11.587 9.3501Z" fill="url(#paint4_linear_4331_11913)"/>
<path d="M20.1551 5.98459C19.9426 5.18459 19.7301 4.39709 19.5176 3.59709C20.0863 3.54084 20.6238 3.92834 20.7926 4.50334C20.9613 5.07834 20.7051 5.69709 20.1551 5.98459Z" fill="url(#paint5_linear_4331_11913)"/>
<path d="M23.9742 3.31592C24.0305 3.37842 24.1492 3.45967 24.1805 3.55967C24.2305 3.72842 24.118 3.84092 23.9555 3.88467C23.518 4.00342 23.0805 4.12217 22.6492 4.23467C22.418 4.29717 22.1867 4.36592 21.9492 4.41592C21.7867 4.45342 21.6555 4.39717 21.6055 4.21592C21.5617 4.04092 21.643 3.91592 21.8055 3.87217C22.4742 3.68467 23.143 3.51592 23.8117 3.33467C23.843 3.34092 23.8742 3.33467 23.9742 3.31592Z" fill="url(#paint6_linear_4331_11913)"/>
<path d="M21.8124 5.73462C22.0874 5.80962 22.3062 5.86587 22.5249 5.92212C22.8749 6.01587 23.2312 6.10962 23.5812 6.20337C23.7624 6.25337 23.8749 6.35962 23.8312 6.55337C23.7812 6.75337 23.6312 6.79712 23.4499 6.75337C22.9124 6.60962 22.3687 6.45962 21.8312 6.31587C21.6624 6.27212 21.5562 6.15962 21.6062 5.99712C21.6374 5.89712 21.7499 5.81587 21.8124 5.73462Z" fill="url(#paint7_linear_4331_11913)"/>
<path d="M20.905 2.82838C20.83 2.77214 20.7175 2.72838 20.6925 2.65338C20.6613 2.56588 20.6675 2.41588 20.7238 2.35963C21.1363 1.92213 21.5613 1.49713 21.9925 1.07838C22.1113 0.965885 22.255 0.978385 22.3675 1.09088C22.48 1.20963 22.4925 1.35338 22.38 1.46588C21.9675 1.89088 21.5488 2.30963 21.1238 2.72838C21.0738 2.77213 20.9925 2.78463 20.905 2.82838Z" fill="url(#paint8_linear_4331_11913)"/>
<path fill-rule="evenodd" clip-rule="evenodd" d="M1 10.5V21C1 21.5523 1.44772 22 2 22H18C18.5523 22 19 21.5523 19 21V10C18.6025 10 17.889 10 17.3619 9.49754C17.0878 9.23618 16.7607 9 16.382 9H13.5C14.9512 12.3861 11.7226 12.4963 11.0581 9.78345C11.0184 9.62142 10.8777 9.5 10.7109 9.5C10.5817 9.5 10.4635 9.57303 10.4057 9.68864L10.25 10C10.0968 10.3064 9.78359 10.5 9.44098 10.5H1ZM4.16655 19H5.31996L5.69761 17.8391H7.53573L7.91264 19H9.06605L7.31108 13.9091H5.92401L4.16655 19ZM7.26293 16.9989L6.63743 15.0724H6.59766L5.97094 16.9989H7.26293ZM10.6588 19H12.4635C12.9805 19 13.4247 18.8981 13.7959 18.6942C14.1687 18.4904 14.4546 18.1979 14.6535 17.8168C14.854 17.4356 14.9543 16.9799 14.9543 16.4496C14.9543 15.9209 14.854 15.4669 14.6535 15.0874C14.4546 14.7079 14.1704 14.417 13.8008 14.2148C13.4313 14.011 12.9905 13.9091 12.4784 13.9091H10.6588V19ZM12.4187 18.0778H11.7351V14.8313H12.4212C12.7394 14.8313 13.007 14.8877 13.2241 15.0004C13.4412 15.113 13.6045 15.2887 13.7138 15.5273C13.8249 15.766 13.8804 16.0734 13.8804 16.4496C13.8804 16.8291 13.8249 17.139 13.7138 17.3793C13.6045 17.6179 13.4404 17.7944 13.2217 17.9087C13.0046 18.0214 12.7369 18.0778 12.4187 18.0778Z" fill="url(#paint9_linear_4331_11913)"/>
</g>
<defs>
<linearGradient id="paint0_linear_4331_11913" x1="1.93243" y1="7" x2="2.56058" y2="10.8017" gradientUnits="userSpaceOnUse">
<stop stop-color="#BBE897"/>
<stop offset="1" stop-color="#08CD87"/>
</linearGradient>
<linearGradient id="paint1_linear_4331_11913" x1="13.4662" y1="4" x2="15.3876" y2="8.3607" gradientUnits="userSpaceOnUse">
<stop stop-color="#BBE897"/>
<stop offset="1" stop-color="#08CD87"/>
</linearGradient>
<linearGradient id="paint2_linear_4331_11913" x1="17.3108" y1="2" x2="21.8194" y2="5.89809" gradientUnits="userSpaceOnUse">
<stop stop-color="#BBE897"/>
<stop offset="1" stop-color="#08CD87"/>
</linearGradient>
<linearGradient id="paint3_linear_4331_11913" x1="10.3108" y1="6" x2="11.8649" y2="9.13514" gradientUnits="userSpaceOnUse">
<stop stop-color="#BBE897"/>
<stop offset="1" stop-color="#08CD87"/>
</linearGradient>
<linearGradient id="paint4_linear_4331_11913" x1="11.7405" y1="9.0376" x2="12.9015" y2="10.8899" gradientUnits="userSpaceOnUse">
<stop stop-color="#BBE897"/>
<stop offset="1" stop-color="#08CD87"/>
</linearGradient>
<linearGradient id="paint5_linear_4331_11913" x1="19.655" y1="3.59167" x2="21.2029" y2="5.32252" gradientUnits="userSpaceOnUse">
<stop stop-color="#BBE897"/>
<stop offset="1" stop-color="#08CD87"/>
</linearGradient>
<linearGradient id="paint6_linear_4331_11913" x1="21.863" y1="3.31592" x2="22.1563" y2="4.70009" gradientUnits="userSpaceOnUse">
<stop stop-color="#BBE897"/>
<stop offset="1" stop-color="#08CD87"/>
</linearGradient>
<linearGradient id="paint7_linear_4331_11913" x1="21.8265" y1="5.73462" x2="22.1185" y2="7.01436" gradientUnits="userSpaceOnUse">
<stop stop-color="#BBE897"/>
<stop offset="1" stop-color="#08CD87"/>
</linearGradient>
<linearGradient id="paint8_linear_4331_11913" x1="20.8587" y1="1" x2="21.8197" y2="2.8922" gradientUnits="userSpaceOnUse">
<stop stop-color="#BBE897"/>
<stop offset="1" stop-color="#08CD87"/>
</linearGradient>
<linearGradient id="paint9_linear_4331_11913" x1="2.86486" y1="9" x2="8.23523" y2="24.0011" gradientUnits="userSpaceOnUse">
<stop stop-color="#BBE897"/>
<stop offset="1" stop-color="#08CD87"/>
</linearGradient>
<clipPath id="clip0_4331_11913">
<rect width="24" height="24" fill="white"/>
</clipPath>
</defs>
</svg>
