<svg width="24" height="24" viewBox="0 0 24 24" fill="none" xmlns="http://www.w3.org/2000/svg">
<g clip-path="url(#clip0_4331_11854)">
<path d="M12.6562 0.00939941C12.6562 1.60253 12.6562 3.13006 12.6562 4.65758C12.6562 5.41666 12.8719 5.6322 13.6312 5.6322C15.1594 5.6322 16.6875 5.6322 18.2812 5.6322C18.2812 6.63494 18.2906 7.60955 18.2719 8.58417C18.2719 8.706 18.1125 8.8372 18.0094 8.94966C16.5938 10.3647 15.1875 11.7798 13.7625 13.1855C13.2844 13.6541 12.9375 14.1882 12.75 14.8349C12.5813 15.4159 12.3656 15.9875 12.1875 16.5686C11.9812 17.2433 12.1312 17.8431 12.6281 18.3304C13.1344 18.827 13.7531 18.977 14.4375 18.7427C14.5969 18.6865 14.7562 18.6302 14.925 18.574C16.1437 18.1898 17.4 17.8618 18.2438 16.606C18.2719 16.8591 18.2906 16.9715 18.2906 17.0933C18.2906 18.6396 18.3 20.1859 18.2906 21.7322C18.2813 23.1191 17.3906 24 15.9938 24C11.4281 24 6.87188 24 2.30625 24C0.88125 23.9907 0 23.1191 0 21.7228C0 15.2472 0 8.76223 0 2.27726C0 0.899677 0.88125 0.00939941 2.24062 0.00939941C5.56875 0.00939941 8.89687 0.00939941 12.225 0.00939941C12.3469 0.00939941 12.4688 0.00939941 12.6562 0.00939941ZM8.42813 8.4436C9.99375 8.4436 11.55 8.4436 13.1156 8.4436C13.7062 8.4436 14.0344 8.19058 14.0438 7.75012C14.0531 7.30967 13.7156 7.0379 13.1344 7.0379C9.99375 7.0379 6.85312 7.0379 3.7125 7.0379C3.68437 7.0379 3.64687 7.0379 3.61875 7.0379C3.12187 7.05665 2.80312 7.33779 2.8125 7.75012C2.82188 8.14372 3.12188 8.4436 3.6 8.4436C5.2125 8.42486 6.81563 8.4436 8.42813 8.4436ZM6.99375 11.255C8.11875 11.255 9.24375 11.255 10.3687 11.255C10.9031 11.255 11.2406 10.9739 11.2313 10.5428C11.2219 10.1304 10.9031 9.84931 10.3969 9.84931C8.14688 9.84931 5.89688 9.84931 3.64688 9.84931C3.14063 9.84931 2.82188 10.1211 2.8125 10.5428C2.80312 10.9739 3.14062 11.255 3.66562 11.255C4.77187 11.255 5.8875 11.255 6.99375 11.255ZM7.03125 14.0664C8.12812 14.0664 9.2625 15.4721 10.3594 15.4721C10.9406 15.4721 11.2313 13.804 11.2406 13.3636C11.2406 12.9231 10.9031 12.6607 10.3219 12.6607C8.11875 12.6607 5.91562 12.6607 3.7125 12.6607C3.15 12.6607 2.80313 12.9418 2.82188 13.3823C2.83125 13.8134 3.15937 14.0664 3.7125 14.0664C4.80937 14.0664 5.91563 14.0664 7.03125 14.0664ZM6.98438 16.8778C8.10938 16.8778 9.23438 16.8778 10.3594 16.8778C10.9031 16.8778 11.2313 16.606 11.2313 16.175C11.2313 15.7439 10.8937 15.4721 10.3594 15.4721C8.1375 15.4721 5.925 15.4721 3.70312 15.4721C3.14062 15.4721 2.79375 15.7532 2.8125 16.1937C2.83125 16.6154 3.15 16.8684 3.70312 16.8778C4.8 16.8778 5.8875 16.8778 6.98438 16.8778ZM11.2406 19.6892C10.5656 19.6892 9.9 19.6798 9.225 19.6892C8.71875 19.6986 8.41875 19.9704 8.42813 20.4014C8.4375 20.8325 8.72812 21.0949 9.24375 21.0949C10.575 21.1043 11.8969 21.1043 13.2281 21.0949C13.725 21.0949 14.0531 20.795 14.0438 20.3827C14.0344 19.9703 13.7156 19.6986 13.2094 19.6892C12.5531 19.6798 11.8969 19.6892 11.2406 19.6892Z" fill="url(#paint0_linear_4331_11854)"/>
<path d="M16.9391 15.8562C16.3203 15.2377 15.6734 14.5911 15.0547 13.9819C16.5453 12.4919 18.0641 10.9737 19.5453 9.50244C20.1453 10.1022 20.8016 10.7582 21.4203 11.3861C19.9578 12.8386 18.4297 14.3662 16.9391 15.8562Z" fill="url(#paint1_linear_4331_11854)"/>
<path d="M14.0625 4.1796C14.0625 2.80201 14.0625 1.4338 14.0625 0.0374698C14.5781 -0.0281296 15.2719 -0.0375009 15.6281 0.290496C16.4625 1.06832 17.1094 1.78054 17.8688 2.63333C18.1594 2.96133 18.2906 3.2987 18.2906 4.1796C16.7531 4.1796 15.4688 4.1796 14.0625 4.1796Z" fill="url(#paint2_linear_4331_11854)"/>
<path d="M20.6641 8.26564C20.9734 7.96576 21.3109 7.58154 21.7047 7.25354C22.2672 6.78497 23.1391 6.85994 23.6172 7.36599C24.1141 7.89079 24.1422 8.66861 23.6453 9.23089C23.3172 9.60575 22.9328 9.92437 22.6047 10.2524C21.9859 9.61512 21.3484 8.95912 20.6641 8.26564Z" fill="url(#paint3_linear_4331_11854)"/>
<path d="M14.0928 15.2002C14.6364 15.7531 15.1518 16.2685 15.6953 16.8214C15.1049 17.0182 14.5052 17.2431 13.8867 17.4212C13.5868 17.5055 13.4181 17.215 13.5399 16.8496C13.718 16.2966 13.9148 15.7531 14.0928 15.2002Z" fill="url(#paint4_linear_4331_11854)"/>
</g>
<defs>
<linearGradient id="paint0_linear_4331_11854" x1="1.89541" y1="0.00939925" x2="16.1665" y2="21.9644" gradientUnits="userSpaceOnUse">
<stop stop-color="#D3C7FF"/>
<stop offset="1" stop-color="#6861FF"/>
</linearGradient>
<linearGradient id="paint1_linear_4331_11854" x1="15.7142" y1="9.50244" x2="19.0018" y2="16.1473" gradientUnits="userSpaceOnUse">
<stop stop-color="#D3C7FF"/>
<stop offset="1" stop-color="#6861FF"/>
</linearGradient>
<linearGradient id="paint2_linear_4331_11854" x1="14.5005" y1="0.000976534" x2="16.6497" y2="4.38797" gradientUnits="userSpaceOnUse">
<stop stop-color="#D3C7FF"/>
<stop offset="1" stop-color="#6861FF"/>
</linearGradient>
<linearGradient id="paint3_linear_4331_11854" x1="21.0101" y1="6.94092" x2="22.7165" y2="10.4132" gradientUnits="userSpaceOnUse">
<stop stop-color="#D3C7FF"/>
<stop offset="1" stop-color="#6861FF"/>
</linearGradient>
<linearGradient id="paint4_linear_4331_11854" x1="13.7274" y1="15.2002" x2="14.8983" y2="17.5196" gradientUnits="userSpaceOnUse">
<stop stop-color="#D3C7FF"/>
<stop offset="1" stop-color="#6861FF"/>
</linearGradient>
<clipPath id="clip0_4331_11854">
<rect width="24" height="24" fill="white"/>
</clipPath>
</defs>
</svg>
