<svg width="24" height="24" viewBox="0 0 24 24" fill="none" xmlns="http://www.w3.org/2000/svg">
<path d="M6.04961 3.43125C6.17461 3.46875 6.30586 3.5 6.42461 3.55C6.90586 3.7625 7.38711 3.99375 7.87461 4.2C7.96211 4.2375 8.08711 4.23125 8.17461 4.19375C8.54961 4.05 8.92461 3.89375 9.29336 3.725C9.38086 3.6875 9.47461 3.6 9.50586 3.5125C9.69336 3.025 9.86211 2.53125 10.0434 2.04375C10.1809 1.6625 10.4121 1.5 10.8184 1.5C11.6309 1.5 12.4434 1.5 13.2559 1.5C13.6496 1.5 13.9309 1.7 14.0684 2.08125C14.2371 2.54375 14.3996 3.00625 14.5809 3.4625C14.6121 3.5375 14.6871 3.60625 14.7621 3.64375C15.1246 3.80625 15.4934 3.94375 15.8559 4.1125C15.9934 4.175 16.1059 4.1875 16.2434 4.11875C16.6809 3.9 17.1246 3.6875 17.5684 3.48125C17.9371 3.30625 18.1871 3.34375 18.4809 3.6375C19.0871 4.2375 19.6871 4.8375 20.2871 5.44375C20.5809 5.7375 20.6184 5.975 20.4496 6.35625C20.2309 6.8375 20.0059 7.31875 19.7996 7.80625C19.7621 7.89375 19.7684 8.01875 19.7996 8.10625C19.9434 8.48125 20.1059 8.85625 20.2746 9.225C20.3121 9.3125 20.3996 9.4 20.4871 9.4375C20.9434 9.61875 21.4059 9.78125 21.8684 9.95C22.3371 10.125 22.5059 10.3625 22.5059 10.8625C22.5059 11.6375 22.5059 12.4062 22.5059 13.1812C22.5059 13.6062 22.3496 13.8313 21.9496 13.975C21.4684 14.15 20.9809 14.3188 20.4996 14.5063C20.4059 14.5438 20.3246 14.6438 20.2809 14.7312C20.1121 15.0938 19.9559 15.4563 19.8121 15.825C19.7746 15.9187 19.7684 16.05 19.8059 16.1437C20.0121 16.6062 20.2371 17.0625 20.4496 17.5187C20.6184 17.875 20.5746 18.1313 20.2996 18.4125C19.6934 19.025 19.0871 19.6312 18.4746 20.2375C18.1809 20.5312 17.9434 20.5625 17.5621 20.3875C17.1059 20.175 16.6496 19.95 16.1871 19.7437C16.1121 19.7062 15.9934 19.7125 15.9121 19.7437C15.5309 19.8937 15.1496 20.05 14.7746 20.225C14.6871 20.2625 14.5996 20.3563 14.5684 20.4375C14.3809 20.925 14.2059 21.4125 14.0246 21.9062C13.8871 22.2875 13.6746 22.4438 13.2684 22.4438C12.4434 22.45 11.6121 22.45 10.7871 22.4438C10.3996 22.4438 10.1746 22.2812 10.0434 21.9188C9.86211 21.4313 9.69336 20.9375 9.50586 20.45C9.46836 20.3625 9.37461 20.2688 9.28086 20.2313C8.93086 20.0688 8.56836 19.925 8.21211 19.7625C8.08086 19.7063 7.98086 19.6875 7.84336 19.75C7.38711 19.9688 6.92461 20.175 6.46211 20.3813C6.03711 20.575 5.81836 20.5375 5.49336 20.2188C4.89336 19.625 4.29961 19.025 3.70586 18.4312C3.41836 18.1437 3.38086 17.8937 3.55586 17.5187C3.76836 17.0687 3.98711 16.6188 4.19336 16.1688C4.23086 16.0813 4.23711 15.9438 4.19961 15.85C4.05586 15.475 3.89961 15.1 3.73086 14.7312C3.69336 14.6438 3.60586 14.5562 3.51836 14.525C3.03711 14.3375 2.55586 14.1687 2.06836 13.9937C1.66836 13.85 1.50586 13.625 1.50586 13.2063C1.50586 12.3938 1.50586 11.5813 1.50586 10.7688C1.50586 10.4 1.63711 10.2188 1.99336 10.0938C2.49961 9.9125 3.00586 9.73125 3.50586 9.5375C3.59336 9.5 3.68086 9.4 3.72461 9.3125C3.89336 8.95 4.04961 8.5875 4.19336 8.21875C4.23086 8.125 4.23711 7.99375 4.19961 7.9C3.99336 7.4125 3.76211 6.9375 3.54961 6.45C3.38086 6.06875 3.43086 5.7625 3.71836 5.46875C4.28711 4.89375 4.85586 4.3125 5.44961 3.75C5.59961 3.60625 5.82461 3.53125 6.01836 3.425C6.02461 3.40625 6.03711 3.41875 6.04961 3.43125ZM8.54961 9.14375C8.48086 8.98125 8.43086 8.8375 8.36211 8.70625C8.16836 8.33125 7.72461 8.18125 7.34336 8.35625C6.96211 8.53125 6.83711 8.88125 7.00586 9.3125C7.23086 9.86875 7.44961 10.425 7.67461 10.9812C7.83711 11.3938 8.05586 11.5437 8.48711 11.55C9.06211 11.55 9.64336 11.55 10.2184 11.55C10.3246 11.55 10.4371 11.5375 10.5434 11.5063C10.8871 11.3938 11.0621 11.0688 11.0121 10.6625C10.9621 10.3063 10.6996 10.075 10.2996 10.05C10.0871 10.0375 9.87461 10.05 9.60586 10.05C9.68711 9.95 9.73711 9.8875 9.78711 9.8375C11.3059 8.24375 13.9871 8.825 14.7371 10.8938C14.8121 11.1062 14.9934 11.3 15.1809 11.4375C15.4309 11.6313 15.8559 11.5812 16.0809 11.4C16.3121 11.2125 16.3684 10.9438 16.2621 10.5938C15.5621 8.325 13.0934 7.00625 10.7809 7.66875C9.88711 7.925 9.14961 8.4125 8.54961 9.14375ZM14.3309 13.9563C13.4871 14.9125 12.4871 15.25 11.3184 14.9937C10.1934 14.75 9.47461 14.0375 9.14336 12.9312C9.00586 12.4812 8.67461 12.3187 8.18711 12.4625C7.78086 12.5812 7.59961 12.925 7.72461 13.3375C8.49336 15.9437 11.5121 17.2562 13.9496 16.05C14.5309 15.7625 15.0246 15.3687 15.4496 14.8562C15.5246 15.0312 15.5809 15.1875 15.6559 15.3438C15.7809 15.6 15.9996 15.7313 16.2809 15.725C16.5746 15.7188 16.8496 15.625 16.9746 15.3375C17.0371 15.2 17.0496 15.0063 16.9996 14.875C16.7621 14.2437 16.4871 13.625 16.2371 12.9937C16.0934 12.625 15.8371 12.4563 15.4496 12.4563C14.8746 12.4563 14.2934 12.4563 13.7184 12.4563C13.2809 12.4563 12.9059 12.8 12.8996 13.1938C12.8934 13.5875 13.2746 13.9438 13.7246 13.9563C13.9059 13.9563 14.0934 13.9563 14.3309 13.9563Z" fill="url(#paint0_linear_4336_21197)"/>
<defs>
<linearGradient id="paint0_linear_4336_21197" x1="3.96532" y1="1.5" x2="19.524" y2="22.4851" gradientUnits="userSpaceOnUse">
<stop stop-color="#B7E0FC"/>
<stop offset="1" stop-color="#40B3FF"/>
</linearGradient>
</defs>
</svg>
