<svg width="24" height="18" viewBox="0 0 24 18" fill="none" xmlns="http://www.w3.org/2000/svg">
<g clip-path="url(#clip0_4336_21191)">
<path d="M11.979 12.8946C8.62624 12.8946 5.27345 12.8849 1.93067 12.9044C1.54034 12.9044 1.44026 12.7877 1.39021 12.4279C0.949848 9.57859 0.489464 6.73904 0.0290807 3.89949C-0.0409777 3.48134 -0.0309694 3.11181 0.379373 2.87842C0.75969 2.65476 1.09997 2.7909 1.43025 3.03402C2.83142 4.06481 4.2526 5.0956 5.66378 6.11667C6.39438 6.64179 6.97487 6.54455 7.47529 5.81521C8.65627 4.09398 9.83725 2.37275 11.0182 0.651519C11.6187 -0.223683 12.3794 -0.223683 12.9899 0.651519C14.1609 2.3533 15.3318 4.06481 16.5028 5.76659C17.0433 6.55427 17.5937 6.65152 18.3744 6.0875C19.7755 5.07615 21.1767 4.06481 22.5679 3.03402C22.8981 2.7909 23.2384 2.65476 23.6187 2.87842C24.0291 3.11181 24.0391 3.48134 23.969 3.89949C23.5787 6.32089 23.1984 8.75201 22.8081 11.1734C22.738 11.6207 22.6379 12.0681 22.6079 12.5154C22.5779 12.8946 22.3577 12.8946 22.0674 12.8946C18.7147 12.8946 15.3418 12.8946 11.979 12.8946Z" fill="url(#paint0_linear_4336_21191)"/>
<path d="M12.0006 14.5771C15.3333 14.5771 18.6661 14.5868 21.9989 14.5674C22.4593 14.5674 22.5594 14.6938 22.5293 15.112C22.4893 15.7051 22.5293 16.3081 22.5193 16.911C22.5093 17.5722 22.119 17.9612 21.4484 18.0098C21.3283 18.0196 21.2182 18.0196 21.0981 18.0196C15.0331 18.0196 8.95803 18.0196 2.89298 18.0196C2.72284 18.0196 2.5627 18.0196 2.39256 17.9904C1.85211 17.9126 1.49181 17.5431 1.4718 17.0082C1.45178 16.3761 1.49181 15.744 1.45178 15.112C1.43176 14.7035 1.52184 14.5674 1.98222 14.5674C5.33501 14.5868 8.66779 14.5771 12.0006 14.5771Z" fill="url(#paint1_linear_4336_21191)"/>
</g>
<defs>
<linearGradient id="paint0_linear_4336_21191" x1="5.24739" y1="11.6956" x2="10.8205" y2="-1.93908" gradientUnits="userSpaceOnUse">
<stop stop-color="#FEC73A"/>
<stop offset="1" stop-color="#FFA825"/>
</linearGradient>
<linearGradient id="paint1_linear_4336_21191" x1="6.06157" y1="17.6963" x2="6.58307" y2="13.5059" gradientUnits="userSpaceOnUse">
<stop stop-color="#FEC73A"/>
<stop offset="1" stop-color="#FFA825"/>
</linearGradient>
<clipPath id="clip0_4336_21191">
<rect width="24" height="18" fill="white"/>
</clipPath>
</defs>
</svg>
