<svg width="24" height="24" viewBox="0 0 24 24" fill="none" xmlns="http://www.w3.org/2000/svg">
<g clip-path="url(#clip0_4331_11933)">
<path d="M11.507 0C16.8442 0.02792 21.4895 3.75803 22.7195 9.0349C24.1965 15.3616 20.3913 21.6547 14.1536 23.1624C11.7705 23.7376 9.42589 23.5421 7.15264 22.5984C6.96046 22.5202 6.79024 22.4979 6.57609 22.5593C4.89037 23.034 3.20465 23.4863 1.51893 23.9442C0.821579 24.1396 0.217575 23.7878 0.0693198 23.0731C0.0308832 22.8776 0.0693198 22.6487 0.124229 22.4477C0.53605 20.845 0.958853 19.248 1.37067 17.6454C1.40362 17.5226 1.39264 17.3662 1.33773 17.2545C0.634887 15.9088 0.190121 14.4793 0.0528469 12.9716C-0.243664 9.68264 0.618414 6.73988 2.71595 4.19916C4.51698 2.02141 6.82318 0.697999 9.57414 0.201024C10.2111 0.0893439 10.8645 0.0670079 11.507 0ZM2.37003 21.6491C3.84709 21.2415 5.25277 20.8618 6.65296 20.4709C6.92751 20.3927 7.15813 20.4151 7.4162 20.5435C9.43687 21.5151 11.5509 21.7385 13.7143 21.2248C18.6891 20.0409 21.8354 15.0935 20.9075 9.95068C19.974 4.74639 14.9937 1.24523 9.86516 2.18893C7.32835 2.6524 5.29121 3.95347 3.7812 6.06422C2.21079 8.25314 1.67817 10.7213 2.09548 13.396C2.28766 14.6133 2.71595 15.758 3.3529 16.8134C3.48469 17.0312 3.52312 17.249 3.45174 17.5002C3.21014 18.3825 2.98501 19.2704 2.75439 20.1582C2.6281 20.6329 2.5073 21.1131 2.37003 21.6491Z" fill="url(#paint0_linear_4331_11933)"/>
<path d="M9.40518 9.52052C8.72979 9.43676 8.08186 9.353 7.35156 9.25807C7.4504 8.87836 7.49982 8.48748 7.64807 8.14685C8.19168 6.90162 9.16357 6.18129 10.4704 5.93559C11.4643 5.74574 12.4581 5.78482 13.4026 6.16454C14.5447 6.62801 15.3574 7.42093 15.6045 8.69408C15.7802 9.62103 15.5056 10.4307 14.8632 11.0896C14.3525 11.6201 13.7979 12.1059 13.2543 12.6029C12.8425 12.977 12.4856 13.3735 12.4691 13.9765C12.4636 14.1887 12.4527 14.4009 12.4417 14.6299C11.7828 14.6299 11.1403 14.6299 10.4649 14.6299C10.4045 13.6359 10.443 12.6643 11.1788 11.9049C11.7663 11.2962 12.4307 10.7657 13.0402 10.1794C13.6716 9.57077 13.6716 8.66058 13.0292 8.06309C12.4252 7.49911 11.7004 7.45444 10.9481 7.64429C10.1629 7.84532 9.74012 8.43164 9.50401 9.17431C9.46558 9.27482 9.44361 9.3865 9.40518 9.52052Z" fill="url(#paint1_linear_4331_11933)"/>
<path d="M10.4805 15.4398C11.2163 15.4398 11.9246 15.4398 12.6494 15.4398C12.6494 16.1713 12.6494 16.8972 12.6494 17.6399C11.9356 17.6399 11.2217 17.6399 10.4805 17.6399C10.4805 16.9196 10.4805 16.1881 10.4805 15.4398Z" fill="url(#paint2_linear_4331_11933)"/>
</g>
<defs>
<linearGradient id="paint0_linear_4331_11933" x1="3.94012" y1="1.62146" x2="20.6648" y2="23.3473" gradientUnits="userSpaceOnUse">
<stop stop-color="#F7CCDC"/>
<stop offset="1" stop-color="#FD80D2"/>
</linearGradient>
<linearGradient id="paint1_linear_4331_11933" x1="8.77313" y1="6.41942" x2="14.937" y2="14.2849" gradientUnits="userSpaceOnUse">
<stop stop-color="#F7CCDC"/>
<stop offset="1" stop-color="#FD80D2"/>
</linearGradient>
<linearGradient id="paint2_linear_4331_11933" x1="10.8517" y1="15.5885" x2="12.3742" y2="17.6191" gradientUnits="userSpaceOnUse">
<stop stop-color="#F7CCDC"/>
<stop offset="1" stop-color="#FD80D2"/>
</linearGradient>
<clipPath id="clip0_4331_11933">
<rect width="23.04" height="24" fill="white"/>
</clipPath>
</defs>
</svg>
