<svg width="24" height="24" viewBox="0 0 24 24" fill="none" xmlns="http://www.w3.org/2000/svg">
<path fill-rule="evenodd" clip-rule="evenodd" d="M21.6004 12C21.6004 14.5461 20.589 16.9879 18.7886 18.7882C16.9883 20.5886 14.5465 21.6 12.0004 21.6C9.45431 21.6 7.01252 20.5886 5.21217 18.7882C3.41182 16.9879 2.40039 14.5461 2.40039 12C2.40039 9.45395 3.41182 7.01215 5.21217 5.2118C7.01252 3.41145 9.45431 2.40002 12.0004 2.40002C14.5465 2.40002 16.9883 3.41145 18.7886 5.2118C20.589 7.01215 21.6004 9.45395 21.6004 12ZM13.2004 7.20002C13.2004 7.51828 13.074 7.82351 12.8489 8.04855C12.6239 8.2736 12.3187 8.40002 12.0004 8.40002C11.6821 8.40002 11.3769 8.2736 11.1519 8.04855C10.9268 7.82351 10.8004 7.51828 10.8004 7.20002C10.8004 6.88176 10.9268 6.57654 11.1519 6.3515C11.3769 6.12645 11.6821 6.00002 12.0004 6.00002C12.3187 6.00002 12.6239 6.12645 12.8489 6.3515C13.074 6.57654 13.2004 6.88176 13.2004 7.20002ZM10.8004 10.8C10.4821 10.8 10.1769 10.9265 9.95186 11.1515C9.72682 11.3765 9.60039 11.6818 9.60039 12C9.60039 12.3183 9.72682 12.6235 9.95186 12.8486C10.1769 13.0736 10.4821 13.2 10.8004 13.2V16.8C10.8004 17.1183 10.9268 17.4235 11.1519 17.6486C11.3769 17.8736 11.6821 18 12.0004 18H13.2004C13.5187 18 13.8239 17.8736 14.0489 17.6486C14.274 17.4235 14.4004 17.1183 14.4004 16.8C14.4004 16.4818 14.274 16.1765 14.0489 15.9515C13.8239 15.7265 13.5187 15.6 13.2004 15.6V12C13.2004 11.6818 13.074 11.3765 12.8489 11.1515C12.6239 10.9265 12.3187 10.8 12.0004 10.8H10.8004Z" fill="url(#paint0_linear_4331_11849)"/>
<defs>
<linearGradient id="paint0_linear_4331_11849" x1="4.38958" y1="2.40002" x2="14.3355" y2="22.4649" gradientUnits="userSpaceOnUse">
<stop stop-color="#BBE897"/>
<stop offset="1" stop-color="#08CD87"/>
</linearGradient>
</defs>
</svg>
