<svg width="24" height="24" viewBox="0 0 24 24" fill="none" xmlns="http://www.w3.org/2000/svg">
<path d="M12.003 16.4981C8.55215 16.4981 5.095 16.4981 1.6441 16.4981C0.893906 16.4981 0.506305 16.1105 0.506305 15.3603C0.506305 13.116 0.518808 10.8779 0.500053 8.63358C0.493802 7.88338 1.03769 7.48328 1.6441 7.48328C8.55215 7.49578 15.4602 7.48953 22.362 7.48953C23.1122 7.48953 23.4998 7.87713 23.4998 8.62732C23.4998 10.8717 23.4998 13.1097 23.4998 15.3541C23.4998 16.1043 23.1122 16.4919 22.362 16.4919C18.9111 16.4981 15.4539 16.4981 12.003 16.4981ZM2.99445 10.5091C2.99445 10.2277 2.99445 9.8964 2.99445 9.55882C2.99445 9.22123 2.78815 8.99617 2.50057 8.99617C2.20675 8.99617 2.00044 9.21498 2.00044 9.55257C2.00044 10.8467 2.00044 12.147 2.00044 13.4411C2.00044 13.7724 2.213 14.0037 2.50057 13.9975C2.7944 13.9975 2.99445 13.7662 2.99445 13.4348C2.99445 12.9847 2.99445 12.5283 2.99445 12.0782C2.99445 11.7281 3.20076 11.4968 3.50083 11.4968C3.78841 11.5031 3.98846 11.7219 3.99471 12.0657C4.00097 12.5158 3.99471 12.9722 3.99471 13.4223C4.00097 13.7724 4.20727 14.0037 4.50735 13.9975C4.79492 13.9912 5.00123 13.7662 5.00123 13.4286C5.00748 12.9597 5.01373 12.4908 5.00123 12.022C4.98247 11.3155 4.57611 10.7341 3.92595 10.5716C3.63837 10.5028 3.31954 10.5278 2.99445 10.5091ZM12.9971 13.4973C13.1971 13.4973 13.3659 13.5036 13.5409 13.4973C14.2974 13.4786 14.9288 12.8909 14.9976 12.1407C15.0726 11.3905 14.5725 10.6716 13.8223 10.5466C13.4034 10.4778 12.9658 10.5028 12.5407 10.5028C12.2031 10.5028 12.003 10.7029 12.003 11.0467C12.003 12.1782 12.003 13.3098 12.003 14.4413C12.003 14.7727 12.2094 14.9977 12.5032 14.9977C12.797 14.9977 12.9908 14.7789 12.9971 14.4351C12.9971 14.135 12.9971 13.8287 12.9971 13.4973ZM6.00149 11.4906C6.00149 11.8657 5.99523 12.2095 6.00149 12.5533C6.02024 13.3348 6.67041 13.9787 7.44561 14.0037C7.70818 14.01 7.91448 13.8724 7.977 13.6349C8.06452 13.3223 7.87072 13.0535 7.50188 12.9972C7.2018 12.9535 7.033 12.8347 7.01425 12.5846C6.98924 12.2283 7.008 11.8719 7.008 11.4968C7.17054 11.4968 7.32058 11.5031 7.46437 11.4968C7.7832 11.4906 8.00201 11.278 8.00201 10.9967C8.00201 10.7154 7.77695 10.5091 7.45812 10.5028C7.30808 10.4966 7.15179 10.5028 6.99549 10.5028C6.99549 10.1715 7.00175 9.8714 6.99549 9.57757C6.99549 9.4838 6.98299 9.39002 6.95173 9.3025C6.87046 9.08995 6.63915 8.97116 6.42034 9.00867C6.18278 9.04618 6.00774 9.24624 6.00149 9.50255C5.99523 9.83389 6.00149 10.1652 6.00149 10.5028C5.80769 10.5028 5.63889 10.4966 5.47635 10.5028C5.19503 10.5216 5.00123 10.7341 5.00748 11.0154C5.01373 11.2843 5.20128 11.4781 5.4826 11.4968C5.63889 11.4968 5.80769 11.4906 6.00149 11.4906ZM9.50865 11.4906C9.50865 11.8782 9.49615 12.2345 9.50865 12.5846C9.53991 13.3536 10.1838 13.985 10.9528 13.9975C11.2403 14.0037 11.4654 13.8162 11.4904 13.5536C11.5154 13.2723 11.3529 13.0597 11.0653 13.0035C11.0215 12.9972 10.9715 12.991 10.9278 12.9847C10.7027 12.9472 10.5402 12.8097 10.5214 12.5909C10.4902 12.2283 10.5152 11.8657 10.5152 11.4906C10.6965 11.4906 10.8527 11.4968 11.0028 11.4906C11.2966 11.4781 11.4904 11.2843 11.4967 11.0092C11.5029 10.7216 11.2966 10.5153 10.9965 10.5028C10.834 10.4966 10.6715 10.5028 10.5277 10.5028C10.5089 10.4716 10.5027 10.4653 10.5027 10.4591C10.5027 10.1715 10.5027 9.8839 10.5027 9.59007C10.5027 9.23373 10.3089 9.00242 10.0088 9.00242C9.7087 8.99617 9.50865 9.22123 9.50865 9.57757C9.50865 9.87765 9.50865 10.184 9.50865 10.5028C9.3211 10.5028 9.15856 10.4966 8.99602 10.5028C8.71469 10.5153 8.50214 10.7341 8.50214 10.9967C8.50214 11.2655 8.70844 11.4781 8.99602 11.4906C9.15231 11.4968 9.31485 11.4906 9.50865 11.4906ZM17.9921 13.9225C17.9921 14.2663 18.1797 14.4726 18.4485 14.5039C18.7235 14.5351 18.9424 14.3663 19.0236 14.0412C19.3425 12.7659 19.6613 11.4906 19.9739 10.2152C20.0676 9.84014 19.9301 9.57757 19.6113 9.50255C19.305 9.43378 19.0736 9.60258 18.9799 9.96517C18.7298 10.9592 18.4797 11.9594 18.2297 12.9535C18.1484 13.2973 18.0609 13.6474 17.9921 13.9225ZM20.5115 14.5101C20.7491 14.5039 20.9366 14.3538 21.0054 14.0912C21.3367 12.7847 21.6618 11.4781 21.9869 10.1715C22.0682 9.82764 21.9181 9.57132 21.6243 9.4963C21.3242 9.42128 21.0867 9.58382 20.9929 9.92766C20.8616 10.4403 20.7303 10.9529 20.6053 11.4656C20.4052 12.2658 20.2052 13.066 20.0114 13.8662C19.9301 14.2163 20.1802 14.5164 20.5115 14.5101ZM16.498 11.4906C16.7793 11.4906 17.0044 11.2593 17.0044 10.9904C16.9981 10.7279 16.7793 10.5028 16.5105 10.4966C16.2354 10.4903 15.9978 10.7154 15.9916 10.9904C15.9916 11.2655 16.2229 11.4906 16.498 11.4906ZM16.5355 12.5033C16.2542 12.4846 16.0166 12.6971 16.0041 12.9785C15.9916 13.241 16.1916 13.4848 16.4355 13.4973C16.7105 13.5161 16.9856 13.2848 17.0044 13.016C17.0231 12.7659 16.798 12.5158 16.5355 12.5033Z" fill="url(#paint0_linear_4331_11875)"/>
<path d="M6.76972 6.49547C5.55065 6.49547 4.33158 6.49547 3.0625 6.49547C3.70017 5.43894 4.49412 4.55746 5.40061 3.83228C6.06328 4.23238 6.6947 4.61373 7.33236 5.00133C7.15106 5.47645 6.96352 5.98284 6.76972 6.49547Z" fill="url(#paint1_linear_4331_11875)"/>
<path d="M17.2287 17.4983C18.454 17.4983 19.6668 17.4983 20.9359 17.4983C20.2982 18.5486 19.5105 19.4238 18.5978 20.1677C17.9413 19.7739 17.3099 19.3863 16.666 18.9987C16.8411 18.5173 17.0349 18.0172 17.2287 17.4983Z" fill="url(#paint2_linear_4331_11875)"/>
<path d="M18.5931 3.8385C19.3183 4.33863 20.6249 5.82027 20.9062 6.48919C19.6809 6.48919 18.4555 6.48919 17.2302 6.48919C17.0427 5.99531 16.8551 5.49518 16.6738 5.0013C17.2927 4.61995 17.9304 4.23861 18.5931 3.8385Z" fill="url(#paint3_linear_4331_11875)"/>
<path d="M5.41467 20.1553C4.73949 19.7177 3.40164 18.2173 3.10156 17.5046C4.32688 17.5046 5.5522 17.5046 6.77127 17.5046C6.95882 18.011 7.15262 18.5112 7.33392 18.9925C6.7025 19.3739 6.06483 19.7615 5.41467 20.1553Z" fill="url(#paint4_linear_4331_11875)"/>
<path d="M8.76562 19.5177C9.65336 19.2176 10.5473 19.0363 11.4851 18.9988C11.4851 19.9803 11.4851 20.9493 11.4851 21.9245C10.5286 21.7683 9.34703 20.7242 8.76562 19.5177Z" fill="url(#paint5_linear_4331_11875)"/>
<path d="M12.5156 2.03809C13.8222 2.41318 14.5912 3.35718 15.2413 4.43871C14.81 4.68252 13.2533 4.99511 12.5156 4.97635C12.5156 4.00735 12.5156 3.03835 12.5156 2.03809Z" fill="url(#paint6_linear_4331_11875)"/>
<path d="M15.2538 19.5489C14.5849 20.6492 13.8097 21.5869 12.5156 21.9558C12.5156 20.9555 12.5156 19.9865 12.5156 19.005C13.4534 19.0488 14.3536 19.2301 15.2538 19.5489Z" fill="url(#paint7_linear_4331_11875)"/>
<path d="M8.74609 4.44496C9.41502 3.34468 10.184 2.41318 11.4843 2.03809C11.4843 3.03209 11.4843 4.0011 11.4843 4.98885C10.5466 4.94509 9.64633 4.7638 8.74609 4.44496Z" fill="url(#paint8_linear_4331_11875)"/>
<path d="M16.1849 19.9177C16.3974 20.024 16.5975 20.1178 16.7913 20.2303C17.0914 20.4054 17.3914 20.5929 17.729 20.7992C16.6412 21.5056 15.5097 21.987 14.2656 22.2308C15.0658 21.5807 15.6972 20.818 16.1849 19.9177Z" fill="url(#paint9_linear_4331_11875)"/>
<path d="M17.7165 3.2196C17.2101 3.51342 16.71 3.801 16.1974 4.09482C15.7035 3.18209 15.0721 2.41314 14.2656 1.79422C14.6782 1.70045 16.9351 2.56943 17.7165 3.2196Z" fill="url(#paint10_linear_4331_11875)"/>
<path d="M6.25195 20.7867C6.78959 20.4741 7.28972 20.1928 7.80236 19.8989C8.28998 20.8179 8.92765 21.5619 9.69035 22.212C8.47128 21.9682 7.35224 21.4931 6.25195 20.7867Z" fill="url(#paint11_linear_4331_11875)"/>
<path d="M6.25781 3.20711C7.3456 2.50068 8.47089 2.02555 9.69621 1.78174C8.93351 2.43191 8.28959 3.1696 7.80822 4.09484C7.29558 3.80101 6.79545 3.51969 6.25781 3.20711Z" fill="url(#paint12_linear_4331_11875)"/>
<path d="M16.167 6.48917C14.9229 6.48917 13.7226 6.48917 12.5098 6.48917C12.5098 6.32662 12.5098 6.17033 12.5098 5.99529C13.6038 5.92652 14.6666 5.72022 15.7231 5.33887C15.8731 5.72647 16.0169 6.08906 16.167 6.48917Z" fill="url(#paint13_linear_4331_11875)"/>
<path d="M11.4834 17.5109C11.4834 17.6734 11.4834 17.8234 11.4834 17.9985C10.3893 18.061 9.32656 18.2736 8.27004 18.6549C8.12 18.2736 7.97621 17.9047 7.82617 17.5109C9.07025 17.5109 10.2706 17.5109 11.4834 17.5109Z" fill="url(#paint14_linear_4331_11875)"/>
<path d="M11.4849 5.99531C11.4849 6.17035 11.4849 6.32039 11.4849 6.48918C10.2784 6.48918 9.07806 6.48918 7.83398 6.48918C7.98402 6.10784 8.12156 5.74524 8.2716 5.36389C9.32187 5.72649 10.3784 5.93904 11.4849 5.99531Z" fill="url(#paint15_linear_4331_11875)"/>
<path d="M15.7415 18.6049C15.1788 18.4611 14.6537 18.3048 14.1223 18.1985C13.5972 18.0985 13.0595 18.0485 12.5156 17.9735C12.5156 17.8359 12.5156 17.6797 12.5156 17.5109C13.7159 17.5109 14.9163 17.5109 16.1666 17.5109C16.0165 17.8797 15.879 18.2423 15.7415 18.6049Z" fill="url(#paint16_linear_4331_11875)"/>
<path d="M13.0039 12.5095C13.0039 12.1531 13.0039 11.8406 13.0039 11.5092C13.2102 11.5092 13.4103 11.4842 13.6041 11.5155C13.8416 11.5467 13.9979 11.7655 13.9979 11.9969C13.9979 12.2282 13.8354 12.4407 13.5978 12.4782C13.4165 12.5095 13.2227 12.497 13.0039 12.5095Z" fill="url(#paint17_linear_4331_11875)"/>
<defs>
<linearGradient id="paint0_linear_4331_11875" x1="2.88286" y1="7.48328" x2="5.08002" y2="18.7921" gradientUnits="userSpaceOnUse">
<stop stop-color="#FEB49C"/>
<stop offset="1" stop-color="#FD6B87"/>
</linearGradient>
<linearGradient id="paint1_linear_4331_11875" x1="3.50487" y1="3.83228" x2="4.48325" y2="6.99679" gradientUnits="userSpaceOnUse">
<stop stop-color="#FEB49C"/>
<stop offset="1" stop-color="#FD6B87"/>
</linearGradient>
<linearGradient id="paint2_linear_4331_11875" x1="17.1084" y1="17.4983" x2="18.091" y2="20.6689" gradientUnits="userSpaceOnUse">
<stop stop-color="#FEB49C"/>
<stop offset="1" stop-color="#FD6B87"/>
</linearGradient>
<linearGradient id="paint3_linear_4331_11875" x1="17.1123" y1="3.8385" x2="18.0894" y2="6.98589" gradientUnits="userSpaceOnUse">
<stop stop-color="#FEB49C"/>
<stop offset="1" stop-color="#FD6B87"/>
</linearGradient>
<linearGradient id="paint4_linear_4331_11875" x1="3.54005" y1="17.5046" x2="4.51715" y2="20.652" gradientUnits="userSpaceOnUse">
<stop stop-color="#FEB49C"/>
<stop offset="1" stop-color="#FD6B87"/>
</linearGradient>
<linearGradient id="paint5_linear_4331_11875" x1="9.04737" y1="18.9988" x2="10.6288" y2="21.9642" gradientUnits="userSpaceOnUse">
<stop stop-color="#FEB49C"/>
<stop offset="1" stop-color="#FD6B87"/>
</linearGradient>
<linearGradient id="paint6_linear_4331_11875" x1="12.798" y1="2.03809" x2="14.3886" y2="5.01405" gradientUnits="userSpaceOnUse">
<stop stop-color="#FEB49C"/>
<stop offset="1" stop-color="#FD6B87"/>
</linearGradient>
<linearGradient id="paint7_linear_4331_11875" x1="12.7993" y1="19.005" x2="14.3957" y2="21.9936" gradientUnits="userSpaceOnUse">
<stop stop-color="#FEB49C"/>
<stop offset="1" stop-color="#FD6B87"/>
</linearGradient>
<linearGradient id="paint8_linear_4331_11875" x1="9.02978" y1="2.03809" x2="10.6262" y2="5.0267" gradientUnits="userSpaceOnUse">
<stop stop-color="#FEB49C"/>
<stop offset="1" stop-color="#FD6B87"/>
</linearGradient>
<linearGradient id="paint9_linear_4331_11875" x1="14.6244" y1="19.9177" x2="15.5229" y2="22.6315" gradientUnits="userSpaceOnUse">
<stop stop-color="#FEB49C"/>
<stop offset="1" stop-color="#FD6B87"/>
</linearGradient>
<linearGradient id="paint10_linear_4331_11875" x1="14.6232" y1="1.78723" x2="15.5203" y2="4.49392" gradientUnits="userSpaceOnUse">
<stop stop-color="#FEB49C"/>
<stop offset="1" stop-color="#FD6B87"/>
</linearGradient>
<linearGradient id="paint11_linear_4331_11875" x1="6.60818" y1="19.8989" x2="7.51184" y2="22.6088" gradientUnits="userSpaceOnUse">
<stop stop-color="#FEB49C"/>
<stop offset="1" stop-color="#FD6B87"/>
</linearGradient>
<linearGradient id="paint12_linear_4331_11875" x1="6.61404" y1="1.78174" x2="7.5177" y2="4.49165" gradientUnits="userSpaceOnUse">
<stop stop-color="#FEB49C"/>
<stop offset="1" stop-color="#FD6B87"/>
</linearGradient>
<linearGradient id="paint13_linear_4331_11875" x1="12.8887" y1="5.33887" x2="13.1166" y2="6.80082" gradientUnits="userSpaceOnUse">
<stop stop-color="#FEB49C"/>
<stop offset="1" stop-color="#FD6B87"/>
</linearGradient>
<linearGradient id="paint14_linear_4331_11875" x1="8.20507" y1="17.5109" x2="8.43059" y2="18.9652" gradientUnits="userSpaceOnUse">
<stop stop-color="#FEB49C"/>
<stop offset="1" stop-color="#FD6B87"/>
</linearGradient>
<linearGradient id="paint15_linear_4331_11875" x1="8.21224" y1="5.36389" x2="8.43094" y2="6.79541" gradientUnits="userSpaceOnUse">
<stop stop-color="#FEB49C"/>
<stop offset="1" stop-color="#FD6B87"/>
</linearGradient>
<linearGradient id="paint16_linear_4331_11875" x1="12.8939" y1="17.5109" x2="13.1009" y2="18.9044" gradientUnits="userSpaceOnUse">
<stop stop-color="#FEB49C"/>
<stop offset="1" stop-color="#FD6B87"/>
</linearGradient>
<linearGradient id="paint17_linear_4331_11875" x1="13.1069" y1="11.4998" x2="13.6349" y2="12.5484" gradientUnits="userSpaceOnUse">
<stop stop-color="#FEB49C"/>
<stop offset="1" stop-color="#FD6B87"/>
</linearGradient>
</defs>
</svg>
