<svg width="30" height="30" viewBox="0 0 30 30" fill="none" xmlns="http://www.w3.org/2000/svg">
<circle cx="15" cy="15" r="15" fill="#00BB45" fill-opacity="0.1"/>
<g clip-path="url(#clip0_4319_10565)">
<path d="M15.7448 25.0003C15.224 25.0003 14.7031 25.0003 14.1823 25.0003C14.1458 24.9847 14.1042 24.9639 14.0677 24.9587C12.125 24.7607 10.375 24.0785 8.84375 22.8649C6.77083 21.2139 5.52083 19.0785 5.10937 16.4587C5.07812 16.2451 5.03646 16.0316 5 15.818C5 15.2712 5 14.7243 5 14.1774C5.01562 14.1462 5.03646 14.1149 5.04167 14.0785C5.10417 13.6722 5.15104 13.266 5.23438 12.8649C6.07292 8.8597 9.47396 5.67741 13.5208 5.10449C13.7396 5.07324 13.9583 5.03158 14.1771 4.99512C14.6979 4.99512 15.2188 4.99512 15.7396 4.99512C15.7656 5.00553 15.7917 5.02637 15.8177 5.03158C16.1198 5.07324 16.4271 5.09928 16.724 5.14616C20.9427 5.87012 24.2708 9.2972 24.8906 13.542C24.9219 13.766 24.9635 13.9951 25 14.2191C25 14.7555 25 15.2868 25 15.8232C24.9844 15.8545 24.9635 15.8857 24.9583 15.9222C24.9062 16.2555 24.8698 16.5941 24.8073 16.9222C24.0208 21.0524 20.625 24.292 16.4583 24.891C16.2188 24.9274 15.9792 24.9639 15.7448 25.0003ZM14.9948 8.34408C11.3229 8.34928 8.34896 11.318 8.33854 14.9951C8.33333 18.6618 11.3333 21.667 15.0052 21.6566C18.6771 21.6514 21.651 18.6774 21.6615 15.0055C21.6667 11.3389 18.6667 8.33366 14.9948 8.34408Z" fill="#00BB45"/>
<path d="M13.1302 13.6045C14.3854 13.6045 15.6146 13.6045 16.849 13.6045C16.9583 14.0264 16.9688 15.4951 16.8698 16.391C15.6302 16.391 14.3906 16.391 13.1354 16.391C13.0312 15.4691 13.0365 14.5472 13.1302 13.6045Z" fill="#00BB45"/>
<path d="M13.2656 17.4434C14.4375 17.4434 15.5729 17.4434 16.7292 17.4434C16.5208 18.4329 16.2917 19.3965 15.6615 20.2038C15.2188 20.7663 14.7865 20.7663 14.3385 20.209C13.8646 19.6257 13.6354 18.9277 13.4427 18.2194C13.375 17.9642 13.3281 17.7142 13.2656 17.4434Z" fill="#00BB45"/>
<path d="M16.724 12.5625C15.5729 12.5625 14.4323 12.5625 13.2656 12.5625C13.3229 12.3021 13.375 12.0521 13.4375 11.8021C13.5885 11.2135 13.776 10.6406 14.1042 10.1302C14.25 9.90626 14.4323 9.69271 14.6354 9.52084C14.875 9.31251 15.125 9.31251 15.3594 9.52605C15.5677 9.70834 15.7552 9.92709 15.8958 10.1563C16.3073 10.8177 16.5052 11.5573 16.6667 12.3073C16.6979 12.3854 16.7083 12.4688 16.724 12.5625Z" fill="#00BB45"/>
<path d="M12.0524 16.3906C11.2347 16.3906 10.4014 16.3906 9.55241 16.3906C9.31283 15.474 9.31803 14.5521 9.5472 13.6094C10.3805 13.6094 11.2191 13.6094 12.0524 13.6094C12.0524 14.5313 12.0524 15.4583 12.0524 16.3906Z" fill="#00BB45"/>
<path d="M17.9482 13.6045C18.7712 13.6045 19.6045 13.6045 20.4482 13.6045C20.6878 14.5316 20.6826 15.4535 20.4535 16.3857C19.6149 16.3857 18.7816 16.3857 17.9482 16.3857C17.9482 15.4691 17.9482 14.5472 17.9482 13.6045Z" fill="#00BB45"/>
<path d="M17.7812 12.5577C17.6042 11.5734 17.3542 10.6254 16.875 9.74524C17.6615 9.67232 19.7604 11.5369 20.0365 12.5577C19.2917 12.5577 18.5469 12.5577 17.7812 12.5577Z" fill="#00BB45"/>
<path d="M16.9111 20.2663C17.0882 19.8079 17.2861 19.36 17.432 18.8913C17.5778 18.4225 17.6768 17.9382 17.8018 17.4434C18.5309 17.4434 19.2809 17.4434 20.0309 17.4434C19.8122 18.4069 17.8799 20.1465 16.9111 20.2663Z" fill="#00BB45"/>
<path d="M13.0885 9.73438C12.9115 10.1927 12.7135 10.6406 12.5677 11.1094C12.4219 11.5781 12.3229 12.0625 12.1979 12.5521C11.4687 12.5521 10.7187 12.5521 9.96875 12.5521C10.2292 11.5521 12.125 9.85417 13.0885 9.73438Z" fill="#00BB45"/>
<path d="M12.2191 17.4482C12.3962 18.4326 12.6462 19.3805 13.1097 20.2712C11.6826 19.7607 10.6357 18.818 9.93262 17.4482C10.7087 17.4482 11.4535 17.4482 12.2191 17.4482Z" fill="#00BB45"/>
</g>
<defs>
<clipPath id="clip0_4319_10565">
<rect width="20" height="20" fill="white" transform="translate(5 5)"/>
</clipPath>
</defs>
</svg>
