<svg width="30" height="30" viewBox="0 0 30 30" fill="none" xmlns="http://www.w3.org/2000/svg">
<circle cx="15" cy="15" r="15" fill="#00BB45" fill-opacity="0.1"/>
<path d="M23.4945 10.3851C23.4893 11.1038 23.2706 11.7653 22.9633 12.4059C22.4008 13.5726 21.63 14.5882 20.7445 15.5205C20.5206 15.7549 20.2133 15.7757 19.9998 15.5518C18.9164 14.4059 17.9685 13.1663 17.4425 11.6559C17.1039 10.6716 17.1039 9.7028 17.6508 8.78093C18.3227 7.6403 19.6664 7.03093 20.932 7.28614C22.2966 7.56218 23.3018 8.62989 23.4685 9.97884C23.4841 10.1091 23.4841 10.2497 23.4945 10.3851ZM21.7341 10.3591C21.7289 9.58822 21.1039 8.97884 20.3383 8.98405C19.5727 8.98926 18.9581 9.62468 18.9685 10.3903C18.9841 11.1611 19.6091 11.7705 20.3748 11.7549C21.13 11.7445 21.7445 11.1143 21.7341 10.3591Z" fill="#00BB45"/>
<path d="M16.6875 15.6921C14.4062 15.6921 12.151 15.6921 9.85938 15.6921C9.88021 15.3327 9.88542 14.9785 9.93229 14.6243C9.98958 14.166 10.0833 13.7129 10.151 13.2598C10.1719 13.14 10.2187 13.1035 10.3385 13.1035C12.2969 13.1087 14.2552 13.1087 16.2187 13.1035C16.3125 13.1035 16.3802 13.1087 16.401 13.2233C16.5729 14.0358 16.6823 14.8483 16.6875 15.6921Z" fill="#00BB45"/>
<path d="M10.1403 18.8646C10.0361 18.0156 9.92676 17.1667 9.81738 16.2969C12.1351 16.2969 14.4007 16.2969 16.6716 16.2969C16.7288 16.776 16.5361 18.3385 16.3591 18.8646C14.307 18.8646 12.2549 18.8646 10.1403 18.8646Z" fill="#00BB45"/>
<path d="M16.224 12.5153C14.2396 12.5153 12.3021 12.5153 10.3438 12.5153C10.7188 11.4215 11.151 10.3851 12.0833 9.65592C12.8385 9.06217 13.7083 9.06738 14.4688 9.65072C15.0938 10.1299 15.4948 10.7809 15.8125 11.484C15.9635 11.8122 16.0833 12.1559 16.224 12.5153Z" fill="#00BB45"/>
<path d="M10.333 19.4629C12.307 19.4629 14.2445 19.4629 16.2028 19.4629C16.0309 20.0566 15.7913 20.6139 15.484 21.14C15.234 21.5671 14.932 21.9577 14.5465 22.2754C13.7549 22.916 12.8695 22.9368 12.0674 22.3118C11.4528 21.8379 11.0622 21.1921 10.7497 20.5046C10.5934 20.1712 10.4736 19.8223 10.333 19.4629Z" fill="#00BB45"/>
<path d="M17.3226 16.2858C17.8018 16.2858 18.2965 16.2858 18.7913 16.2858C18.8434 16.2858 18.8955 16.291 18.9476 16.2806C19.109 16.2493 19.1976 16.1452 19.2028 15.9837C19.208 15.8223 19.0778 15.7025 18.8955 15.7025C18.432 15.6973 17.9736 15.7025 17.5101 15.7025C17.4424 15.7025 17.3695 15.7025 17.3018 15.7025C17.2653 15.2702 17.2445 14.8587 17.1924 14.4473C17.1403 14.015 17.057 13.5879 16.984 13.1608C16.9788 13.14 16.9632 13.1191 16.9684 13.1035C17.1611 12.6504 16.7184 12.3848 16.6351 12.0046C16.5465 11.6087 16.3538 11.2233 16.1559 10.8587C15.9632 10.4993 15.7184 10.1712 15.4893 9.83268C15.4215 9.73372 15.3278 9.64518 15.208 9.50977C15.3434 9.54622 15.4372 9.56706 15.5309 9.59831C15.6872 9.6556 15.8486 9.71289 15.9997 9.78581C16.182 9.87435 16.3382 9.86393 16.458 9.70247C16.6247 9.73893 16.6663 9.82227 16.6455 9.99414C16.5413 11.0046 16.8434 11.9316 17.2861 12.8223C17.8695 13.9889 18.6559 15.015 19.557 15.9473C19.7601 16.1608 19.9163 16.2233 20.3278 16.3014C20.3382 16.4004 20.3538 16.4837 20.2132 16.515C20.0465 16.5566 20.0153 16.6973 19.9945 16.8483C19.9163 17.5046 19.7393 18.1348 19.4736 18.7337C19.4476 18.791 19.3747 18.8691 19.3226 18.8691C18.5465 18.8796 17.7757 18.8743 17.0153 18.8743C17.1195 18.015 17.2184 17.1608 17.3226 16.2858Z" fill="#00BB45"/>
<path d="M6.51562 15.6872C6.52604 15.0934 6.63542 14.5257 6.8125 13.9684C6.89062 13.7132 6.99479 13.4684 7.09896 13.2236C7.11979 13.1715 7.19792 13.1143 7.24479 13.1143C8.00521 13.109 8.76562 13.109 9.52604 13.1143C9.53646 13.1143 9.54688 13.1247 9.53646 13.1195C9.43229 13.9788 9.33333 14.8278 9.23438 15.6924C8.35417 15.6872 7.44271 15.6872 6.51562 15.6872Z" fill="#00BB45"/>
<path d="M6.52652 16.2969C7.43277 16.2969 8.34422 16.2969 9.23485 16.2969C9.33381 17.151 9.43797 18.0052 9.53693 18.875C9.27131 18.875 8.97964 18.875 8.69318 18.875C8.22443 18.875 7.75568 18.8802 7.28693 18.8698C7.22964 18.8698 7.1411 18.8385 7.11506 18.7969C6.81818 18.3073 6.49527 16.9323 6.52652 16.2969Z" fill="#00BB45"/>
<path d="M7.48438 12.5202C7.96875 11.3639 10.1615 9.65039 11.2917 9.54102C11.2813 9.56706 11.276 9.5931 11.2604 9.60872C10.5469 10.3848 10.1146 11.3171 9.80729 12.3118C9.75521 12.4785 9.6875 12.5306 9.51042 12.5254C8.84375 12.515 8.17708 12.5202 7.48438 12.5202Z" fill="#00BB45"/>
<path d="M19.1143 19.4577C18.1821 20.9577 16.9112 21.9525 15.2654 22.4734C15.255 22.4421 15.2498 22.4265 15.255 22.4213C15.9946 21.64 16.4373 20.6921 16.7498 19.6817C16.8071 19.4942 16.8852 19.4473 17.0675 19.4525C17.7341 19.4682 18.4008 19.4577 19.1143 19.4577Z" fill="#00BB45"/>
<path d="M7.45312 19.4583C8.20312 19.4583 8.89583 19.4635 9.59375 19.4531C9.73958 19.4531 9.76562 19.5312 9.79167 19.6354C10.026 20.4167 10.349 21.1563 10.8177 21.8281C10.9271 21.9896 11.0573 22.1354 11.1771 22.2917C11.2135 22.3385 11.2344 22.3906 11.2812 22.4792C9.625 21.9167 8.375 20.9375 7.45312 19.4583Z" fill="#00BB45"/>
</svg>
