<svg width="30" height="30" viewBox="0 0 30 30" fill="none" xmlns="http://www.w3.org/2000/svg">
<circle cx="15" cy="15" r="15" fill="#00BB45" fill-opacity="0.1"/>
<path d="M18.1287 18.1227C18.0401 18.1227 17.9776 18.1227 17.9151 18.1227C14.5704 18.1227 11.2206 18.1227 7.87599 18.1227C7.04765 18.1227 6.56836 17.6434 6.56836 16.8151C6.56836 14.3457 6.56836 11.8815 6.56836 9.41212C6.56836 8.60983 7.05286 8.12012 7.84994 8.12012C12.1011 8.12012 16.3522 8.12012 20.6085 8.12012C21.3951 8.12012 21.8848 8.60983 21.8848 9.4017C21.8848 10.527 21.8848 11.6523 21.8848 12.7984C21.8275 12.8036 21.7702 12.8088 21.7181 12.8088C20.9888 12.8088 20.2594 12.8088 19.5301 12.8088C18.6809 12.8088 18.1339 13.3506 18.1339 14.1946C18.1339 15.4293 18.1339 16.6692 18.1339 17.9039C18.1287 17.9716 18.1287 18.0394 18.1287 18.1227ZM14.2214 17.0183C14.3621 17.0183 14.5079 17.0235 14.6486 17.0183C14.8622 17.0131 14.9976 16.888 15.0028 16.7109C15.0081 16.5286 14.8726 16.3983 14.659 16.3983C14.3673 16.3931 14.0755 16.3931 13.7838 16.3983C13.5702 16.4035 13.4399 16.5286 13.4399 16.7109C13.4452 16.8932 13.5754 17.0131 13.7942 17.0183C13.9349 17.0235 14.0755 17.0183 14.2214 17.0183Z" fill="#00BB45"/>
<path d="M18.7542 17.6385C18.7542 16.4923 18.7542 15.3462 18.7542 14.2001C18.7542 13.7051 19.0199 13.4395 19.5096 13.4395C20.5724 13.4395 21.63 13.4395 22.6928 13.4395C23.1721 13.4395 23.4377 13.7104 23.4377 14.1896C23.4377 16.5028 23.4377 18.8106 23.4377 21.1237C23.4377 21.603 23.1668 21.8739 22.6928 21.8739C21.6248 21.8739 20.5568 21.8739 19.4888 21.8739C19.0251 21.8739 18.7542 21.5978 18.749 21.1342C18.7542 19.9672 18.7542 18.8002 18.7542 17.6385ZM21.0778 20.9362C21.234 20.9362 21.3903 20.9414 21.5466 20.9362C21.7446 20.931 21.8748 20.806 21.88 20.6288C21.8853 20.4517 21.7498 20.3162 21.557 20.311C21.2497 20.3058 20.9475 20.3058 20.6401 20.311C20.4474 20.3162 20.3171 20.4517 20.3171 20.6288C20.3224 20.806 20.4526 20.931 20.6506 20.9362C20.7912 20.9414 20.9371 20.9362 21.0778 20.9362Z" fill="#00BB45"/>
<path d="M12.1843 21.2487C12.1843 20.4099 12.1843 19.592 12.1843 18.7637C13.5388 18.7637 14.8882 18.7637 16.2531 18.7637C16.2531 19.5868 16.2531 20.4099 16.2531 21.2487C16.6751 21.2487 17.0814 21.2435 17.493 21.2487C17.691 21.2487 17.8212 21.3894 17.816 21.5665C17.8108 21.7384 17.6858 21.8582 17.5034 21.8739C17.4774 21.8739 17.4513 21.8739 17.4253 21.8739C15.2893 21.8739 13.1585 21.8739 11.0226 21.8739C10.7725 21.8739 10.6318 21.7592 10.6318 21.5665C10.6318 21.3685 10.7725 21.2539 11.0174 21.2487C11.3925 21.2487 11.778 21.2487 12.1843 21.2487Z" fill="#00BB45"/>
</svg>
