<svg width="30" height="30" viewBox="0 0 30 30" fill="none" xmlns="http://www.w3.org/2000/svg">
<circle cx="15" cy="15" r="15" fill="#00BB45" fill-opacity="0.1"/>
<g clip-path="url(#clip0_4319_10593)">
<path d="M18.3403 24C14.9644 24 11.5885 24 8.21266 24C8.18453 23.9813 8.16109 23.9578 8.12827 23.9484C7.2843 23.6859 6.83887 23.0859 6.83887 22.2047C6.83887 18.3375 6.83887 14.4703 6.83887 10.6031C6.84356 9.52969 7.56562 8.8125 8.63934 8.8125C10.843 8.8125 13.0467 8.8125 15.2504 8.8125C15.3161 8.8125 15.377 8.8125 15.4427 8.8125C15.4614 8.76562 15.4755 8.72813 15.4896 8.69063C15.9725 7.35469 16.9009 6.50156 18.2653 6.11719C18.4294 6.07031 18.5982 6.0375 18.767 6C19.0624 6 19.3531 6 19.6485 6C19.7704 6.02344 19.8923 6.05156 20.0142 6.075C21.7537 6.42656 23.0712 7.95469 23.165 9.71719C23.2588 11.5219 22.1053 13.1719 20.3846 13.6969C20.1923 13.7578 19.9907 13.7953 19.7938 13.8469C19.7938 13.9172 19.7938 13.9828 19.7938 14.0484C19.7938 16.7859 19.7938 19.5187 19.7938 22.2562C19.7938 23.0812 19.2921 23.7375 18.5232 23.9437C18.4528 23.9578 18.4013 23.9813 18.3403 24ZM18.6591 13.8375C17.6933 13.6781 16.8821 13.2422 16.2444 12.5063C15.6068 11.7703 15.2973 10.9078 15.2786 9.9375C15.2035 9.9375 15.1473 9.9375 15.0863 9.9375C12.9436 9.9375 10.7961 9.9375 8.6534 9.9375C8.17046 9.9375 7.96885 10.1391 7.96885 10.6172C7.96885 14.4797 7.96885 18.3375 7.96885 22.2C7.96885 22.6734 8.17046 22.875 8.63934 22.875C11.7573 22.875 14.8753 22.875 17.9933 22.875C18.4528 22.875 18.6591 22.6687 18.6591 22.2141C18.6591 19.4859 18.6591 16.7531 18.6591 14.025C18.6591 13.9641 18.6591 13.9031 18.6591 13.8375ZM18.9405 9.65625C18.6638 9.65625 18.4013 9.65625 18.1387 9.65625C17.7823 9.65625 17.5292 9.89531 17.5338 10.2188C17.5338 10.5469 17.787 10.7766 18.1434 10.7766C18.5747 10.7766 19.0108 10.7766 19.4422 10.7766C19.836 10.7766 20.0611 10.5469 20.0611 10.1531C20.0611 9.63281 20.0611 9.1125 20.0611 8.59219C20.0611 8.22187 19.8313 7.96406 19.4984 7.96406C19.1655 7.96406 18.9358 8.21719 18.9358 8.5875C18.9405 8.94375 18.9405 9.29531 18.9405 9.65625Z" fill="#00BB45"/>
<path d="M13.3326 15C14.5329 15 15.7332 15 16.9336 15C17.3696 15 17.6509 15.3984 17.4868 15.7781C17.3837 16.0172 17.1914 16.125 16.9289 16.125C16.1599 16.125 15.3957 16.125 14.6267 16.125C12.981 16.125 11.3352 16.125 9.68948 16.125C9.25343 16.125 8.97211 15.7266 9.13622 15.3469C9.23937 15.1078 9.43161 15 9.69417 15C10.9086 15 12.1229 15 13.3326 15Z" fill="#00BB45"/>
<path d="M13.3328 17.25C14.5331 17.25 15.7335 17.25 16.9338 17.25C17.3651 17.25 17.6418 17.6297 17.4964 18.0094C17.412 18.2344 17.2104 18.3703 16.9478 18.3703C16.268 18.3703 15.5881 18.3703 14.9082 18.3703C13.1734 18.3703 11.4433 18.3703 9.70844 18.3703C9.2677 18.3703 8.98169 17.9953 9.12704 17.6109C9.21613 17.3812 9.41774 17.25 9.69438 17.25C10.9088 17.25 12.1184 17.25 13.3328 17.25Z" fill="#00BB45"/>
<path d="M13.3331 19.5001C14.5334 19.5001 15.7337 19.5001 16.934 19.5001C17.3654 19.5001 17.642 19.8751 17.4967 20.2595C17.4123 20.4845 17.2106 20.6251 16.9481 20.6251C16.3901 20.6251 15.8368 20.6251 15.2789 20.6251C13.4409 20.6251 11.6029 20.6251 9.76026 20.6251C9.68524 20.6251 9.60554 20.6298 9.5352 20.6111C9.25388 20.5501 9.06164 20.2829 9.09446 20.0017C9.12729 19.7204 9.36172 19.5048 9.65711 19.5001C10.5527 19.4954 11.4482 19.5001 12.3437 19.5001C12.6766 19.5001 13.0049 19.5001 13.3331 19.5001Z" fill="#00BB45"/>
<path d="M11.3444 11.625C11.8883 11.625 12.4322 11.625 12.9761 11.625C13.3418 11.625 13.5997 11.8641 13.595 12.1969C13.5903 12.5203 13.3371 12.75 12.9808 12.75C11.893 12.75 10.8052 12.75 9.71272 12.75C9.347 12.75 9.08912 12.5156 9.09381 12.1781C9.0985 11.8547 9.35169 11.625 9.70804 11.625C10.2519 11.625 10.8005 11.625 11.3444 11.625Z" fill="#00BB45"/>
</g>
<defs>
<clipPath id="clip0_4319_10593">
<rect width="18" height="18" fill="white" transform="translate(6 6)"/>
</clipPath>
</defs>
</svg>
