<svg width="30" height="30" viewBox="0 0 30 30" fill="none" xmlns="http://www.w3.org/2000/svg">
<circle cx="15" cy="15" r="15" fill="#00BB45" fill-opacity="0.1"/>
<g clip-path="url(#clip0_4319_10579)">
<path d="M14.2008 4.99999C14.7076 4.99999 15.2144 4.99999 15.7212 4.99999C15.848 5.02436 15.9795 5.0536 16.1062 5.06822C17.9727 5.28751 19.6394 5.97952 21.1209 7.13449C21.2865 7.2612 21.4474 7.39765 21.6374 7.54872C21.6374 6.9152 21.6423 6.32065 21.6326 5.72611C21.6277 5.44833 21.6326 5.18518 21.8811 4.99512C21.9737 4.99512 22.0614 4.99512 22.154 4.99512C22.3587 5.09746 22.4708 5.2534 22.4659 5.49707C22.461 9.06919 22.4659 12.6462 22.4561 16.2183C22.4561 16.3548 22.3928 16.5205 22.3002 16.6179C21.9201 17.0273 21.5205 17.4171 21.1209 17.807C20.9113 18.0117 20.6823 18.0019 20.4678 17.8021C20.4289 17.768 20.3947 17.729 20.3558 17.69C20.0682 17.4074 19.8587 17.4074 19.576 17.69C18.845 18.421 18.1238 19.1618 17.383 19.8782C16.9834 20.268 16.9444 20.5068 17.3684 20.8674C17.3782 20.8772 17.3879 20.8869 17.3977 20.8967C17.5877 21.1111 17.5926 21.3207 17.3977 21.5351C17.3246 21.6179 17.2368 21.691 17.1686 21.7739C17.0273 21.9444 17.0322 22.1735 17.1686 22.3246C17.3099 22.4805 17.5487 22.5049 17.7339 22.3635C17.8314 22.2904 17.9142 22.193 18.0068 22.1101C18.1969 21.9444 18.4064 21.9396 18.6014 22.1004C18.6404 22.1345 18.6745 22.1735 18.7135 22.2076C19.0497 22.5438 19.2349 22.5438 19.576 22.2027C19.9025 21.8762 20.229 21.5497 20.5556 21.2232C20.9893 20.7895 21.4181 20.3606 21.8519 19.9269C22.1199 19.654 22.1199 19.4493 21.847 19.1764C21.8226 19.152 21.8031 19.1325 21.7788 19.1082C21.4961 18.8255 21.4961 18.6257 21.7739 18.3431C22.1881 17.9288 22.5926 17.5097 23.0166 17.1053C23.2212 16.9103 23.3041 16.7008 23.2992 16.4181C23.2895 14.6784 23.2943 12.9337 23.2943 11.1939C23.2943 10.9064 23.4113 10.731 23.6257 10.6871C23.8499 10.6433 24.0205 10.7456 24.1277 10.9941C24.8977 12.7778 25.1462 14.6345 24.8392 16.5546C24.5078 18.6257 23.6306 20.4483 22.1345 21.9201C19.2593 24.7563 15.8187 25.692 11.9786 24.4639C8.0848 23.2212 5.81384 20.4337 5.10721 16.3986C5.06823 16.1842 5.03899 15.9746 5 15.7602C5 15.2388 5 14.7222 5 14.2008C5.01462 14.1667 5.03411 14.1374 5.03899 14.1033C5.12183 13.2164 5.2924 12.344 5.62865 11.5156C7.08577 7.91422 9.72222 5.7651 13.5624 5.1072C13.7768 5.06822 13.9864 5.0341 14.2008 4.99999ZM10.8187 14.9854C10.8333 17.2807 12.7242 19.1618 14.9903 19.1374C17.2856 19.1131 19.1326 17.2661 19.1374 14.9805C19.1472 12.7047 17.2563 10.8138 14.9756 10.8187C12.6949 10.8236 10.809 12.7144 10.8187 14.9854ZM14.6101 7.49999C13.7914 7.54385 13.0019 7.71929 12.2417 8.01656C11.2817 8.3918 10.4386 8.95711 9.70273 9.67835C9.51754 9.85866 9.51267 10.0975 9.66374 10.2729C9.81481 10.4386 10.0585 10.4532 10.2583 10.2924C10.385 10.19 10.4971 10.0731 10.6189 9.96588C11.3694 9.31286 12.2222 8.85477 13.1774 8.58186C13.7768 8.4113 14.386 8.36256 15 8.32358C15.2339 8.30896 15.3899 8.12377 15.385 7.91422C15.3801 7.70467 15.2144 7.52923 14.9903 7.50974C14.8684 7.49024 14.7417 7.49999 14.6101 7.49999Z" fill="#00BB45"/>
<path d="M15.8093 14.9759C15.8093 15.4389 15.4486 15.8044 14.9857 15.8044C14.5227 15.8044 14.1572 15.4438 14.1572 14.9808C14.1572 14.5178 14.5179 14.1523 14.9808 14.1523C15.4389 14.1523 15.8044 14.5178 15.8093 14.9759Z" fill="#00BB45"/>
</g>
<defs>
<clipPath id="clip0_4319_10579">
<rect width="20" height="20" fill="white" transform="translate(5 5)"/>
</clipPath>
</defs>
</svg>
