<svg width="60" height="60" viewBox="0 0 60 60" fill="none" xmlns="http://www.w3.org/2000/svg">
<circle cx="30" cy="30" r="30" fill="#00BB45" fill-opacity="0.1"/>
<path d="M25 15.0003V11.667H35V15.0003H25ZM30 46.667C27.9444 46.667 26.0067 46.2714 24.1867 45.4803C22.3667 44.6892 20.7767 43.6125 19.4167 42.2503C18.0567 40.8881 16.9806 39.2975 16.1883 37.4787C15.3961 35.6598 15 33.7225 15 31.667C15 29.6114 15.3961 27.6737 16.1883 25.8537C16.9806 24.0337 18.0567 22.4437 19.4167 21.0837C20.7767 19.7237 22.3672 18.6475 24.1883 17.8553C26.0094 17.0631 27.9467 16.667 30 16.667C31.7222 16.667 33.375 16.9448 34.9583 17.5003C36.5417 18.0559 38.0278 18.8614 39.4167 19.917L41.75 17.5837L44.0833 19.917L41.75 22.2503C42.8056 23.6392 43.6111 25.1253 44.1667 26.7087C44.7222 28.292 45 29.9448 45 31.667C45 33.7225 44.6039 35.6603 43.8117 37.4803C43.0194 39.3003 41.9433 40.8903 40.5833 42.2503C39.2233 43.6103 37.6328 44.687 35.8117 45.4803C33.9906 46.2737 32.0533 46.6692 30 46.667ZM26.6667 38.3337L36.6667 31.667L26.6667 25.0003V38.3337Z" fill="#00BB45"/>
</svg>
