<svg width="30" height="30" viewBox="0 0 30 30" fill="none" xmlns="http://www.w3.org/2000/svg">
<circle cx="15" cy="15" r="15" fill="#00BB45" fill-opacity="0.1"/>
<path d="M15.0003 7.5C14.1163 7.5 13.2684 7.85119 12.6433 8.47631C12.0182 9.10143 11.667 9.94928 11.667 10.8333H13.3337C13.4442 10.8333 13.5501 10.8772 13.6283 10.9554C13.7064 11.0335 13.7503 11.1395 13.7503 11.25C13.7503 11.3605 13.7064 11.4665 13.6283 11.5446C13.5501 11.6228 13.4442 11.6667 13.3337 11.6667H11.667V12.5H13.3337C13.4442 12.5 13.5501 12.5439 13.6283 12.622C13.7064 12.7002 13.7503 12.8062 13.7503 12.9167C13.7503 13.0272 13.7064 13.1332 13.6283 13.2113C13.5501 13.2894 13.4442 13.3333 13.3337 13.3333H11.667V14.1667H13.3337C13.4442 14.1667 13.5501 14.2106 13.6283 14.2887C13.7064 14.3668 13.7503 14.4728 13.7503 14.5833C13.7503 14.6938 13.7064 14.7998 13.6283 14.878C13.5501 14.9561 13.4442 15 13.3337 15H11.667C11.667 15.8841 12.0182 16.7319 12.6433 17.357C13.2684 17.9821 14.1163 18.3333 15.0003 18.3333C15.8844 18.3333 16.7322 17.9821 17.3573 17.357C17.9825 16.7319 18.3337 15.8841 18.3337 15H16.667C16.5565 15 16.4505 14.9561 16.3724 14.878C16.2942 14.7998 16.2503 14.6938 16.2503 14.5833C16.2503 14.4728 16.2942 14.3668 16.3724 14.2887C16.4505 14.2106 16.5565 14.1667 16.667 14.1667H18.3337V13.3333H16.667C16.5565 13.3333 16.4505 13.2894 16.3724 13.2113C16.2942 13.1332 16.2503 13.0272 16.2503 12.9167C16.2503 12.8062 16.2942 12.7002 16.3724 12.622C16.4505 12.5439 16.5565 12.5 16.667 12.5H18.3337V11.6667H16.667C16.5565 11.6667 16.4505 11.6228 16.3724 11.5446C16.2942 11.4665 16.2503 11.3605 16.2503 11.25C16.2503 11.1395 16.2942 11.0335 16.3724 10.9554C16.4505 10.8772 16.5565 10.8333 16.667 10.8333H18.3337C18.3337 9.94928 17.9825 9.10143 17.3573 8.47631C16.7322 7.85119 15.8844 7.5 15.0003 7.5Z" fill="#00BB45"/>
<path fill-rule="evenodd" clip-rule="evenodd" d="M14.5837 21.6663V19.583H15.417V21.6663H14.5837ZM11.667 22.083C11.667 21.9725 11.7109 21.8665 11.789 21.7884C11.8672 21.7102 11.9732 21.6663 12.0837 21.6663H17.917C18.0275 21.6663 18.1335 21.7102 18.2116 21.7884C18.2898 21.8665 18.3337 21.9725 18.3337 22.083C18.3337 22.1935 18.2898 22.2995 18.2116 22.3776C18.1335 22.4558 18.0275 22.4997 17.917 22.4997H12.0837C11.9732 22.4997 11.8672 22.4558 11.789 22.3776C11.7109 22.2995 11.667 22.1935 11.667 22.083Z" fill="#00BB45"/>
<path fill-rule="evenodd" clip-rule="evenodd" d="M10.1896 16.4239C10.2925 16.3838 10.407 16.3863 10.5081 16.4306C10.6092 16.475 10.6886 16.5577 10.7287 16.6605C11.0573 17.5053 11.629 18.2338 12.3715 18.7537C13.114 19.2736 13.994 19.5617 14.9003 19.5815C15.8065 19.6013 16.6983 19.3519 17.4628 18.8649C18.2273 18.3779 18.8303 17.6752 19.1954 16.8455C19.2175 16.7954 19.2492 16.7501 19.2887 16.7123C19.3283 16.6744 19.3749 16.6447 19.4259 16.6248C19.477 16.605 19.5314 16.5954 19.5862 16.5966C19.6409 16.5978 19.6949 16.6097 19.745 16.6318C19.7951 16.6538 19.8404 16.6855 19.8783 16.7251C19.9161 16.7646 19.9458 16.8113 19.9657 16.8623C19.9855 16.9133 19.9951 16.9678 19.9939 17.0225C19.9928 17.0773 19.9808 17.1312 19.9587 17.1814C19.5273 18.1621 18.8148 18.9928 17.9112 19.5685C17.0076 20.1442 15.9536 20.439 14.8825 20.4156C13.8113 20.3923 12.7712 20.0518 11.8936 19.4372C11.0159 18.8226 10.3403 17.9616 9.95207 16.963C9.91209 16.86 9.91465 16.7454 9.95918 16.6443C10.0037 16.5432 10.0866 16.4639 10.1896 16.4239Z" fill="#00BB45"/>
</svg>
