<svg width="30" height="30" viewBox="0 0 30 30" fill="none" xmlns="http://www.w3.org/2000/svg">
<circle cx="15" cy="15" r="15" fill="#00BB45" fill-opacity="0.1"/>
<g clip-path="url(#clip0_4319_10551)">
<path d="M9.5 7C10.163 7 10.7989 7.26339 11.2678 7.73223C11.7366 8.20107 12 8.83696 12 9.5C12 10.163 11.7366 10.7989 11.2678 11.2678C10.7989 11.7366 10.163 12 9.5 12C8.83696 12 8.20107 11.7366 7.73223 11.2678C7.26339 10.7989 7 10.163 7 9.5C7 8.83696 7.26339 8.20107 7.73223 7.73223C8.20107 7.26339 8.83696 7 9.5 7ZM21 7C21.663 7 22.2989 7.26339 22.7678 7.73223C23.2366 8.20107 23.5 8.83696 23.5 9.5C23.5 10.163 23.2366 10.7989 22.7678 11.2678C22.2989 11.7366 21.663 12 21 12C20.337 12 19.7011 11.7366 19.2322 11.2678C18.7634 10.7989 18.5 10.163 18.5 9.5C18.5 8.83696 18.7634 8.20107 19.2322 7.73223C19.7011 7.26339 20.337 7 21 7ZM5 16.3344C5 14.4938 6.49375 13 8.33437 13H9.66875C10.1656 13 10.6375 13.1094 11.0625 13.3031C11.0219 13.5281 11.0031 13.7625 11.0031 14C11.0031 15.1938 11.5281 16.2656 12.3562 17H5.66562C5.3 17 5 16.7 5 16.3344ZM17.6656 17H17.6438C18.475 16.2656 18.9969 15.1938 18.9969 14C18.9969 13.7625 18.975 13.5312 18.9375 13.3031C19.3625 13.1062 19.8344 13 20.3313 13H21.6656C23.5063 13 25 14.4938 25 16.3344C25 16.7031 24.7 17 24.3344 17H17.6687H17.6656ZM12 14C12 13.2044 12.3161 12.4413 12.8787 11.8787C13.4413 11.3161 14.2044 11 15 11C15.7956 11 16.5587 11.3161 17.1213 11.8787C17.6839 12.4413 18 13.2044 18 14C18 14.7956 17.6839 15.5587 17.1213 16.1213C16.5587 16.6839 15.7956 17 15 17C14.2044 17 13.4413 16.6839 12.8787 16.1213C12.3161 15.5587 12 14.7956 12 14ZM9 22.1656C9 19.8656 10.8656 18 13.1656 18H16.8313C19.1344 18 21 19.8656 21 22.1656C21 22.625 20.6281 23 20.1656 23H9.83125C9.37188 23 8.99688 22.6281 8.99688 22.1656H9Z" fill="#00BB45"/>
</g>
<defs>
<clipPath id="clip0_4319_10551">
<rect width="20" height="16" fill="white" transform="translate(5 7)"/>
</clipPath>
</defs>
</svg>
